<?xml version="1.0" encoding="iso-8859-1"?>
<!-- Generator: Adobe Illustrator 19.0.0, SVG Export Plug-In . SVG Version: 6.00 Build 0)  -->
<svg version="1.1" id="Capa_1" xmlns="http://www.w3.org/2000/svg" xmlns:xlink="http://www.w3.org/1999/xlink" x="0px" y="0px"
	 viewBox="0 0 512.001 512.001" style="enable-background:new 0 0 512.001 512.001;" xml:space="preserve">
<g>
	<g>
		<path d="M490.052,456.232c-1.967-5.163-7.744-7.754-12.906-5.792l-43.066,16.384l-53.466-139.488
			c1.748-0.746,10.102-6.056,13.109-8.625c23.327-19.912,32.196-51.958,22.07-79.742L339.371,29.266
			c-0.916-2.515-2.803-4.557-5.237-5.67c-2.433-1.113-5.213-1.205-7.714-0.252L255.382,50.37l-71.037-27.026
			c-2.501-0.951-5.28-0.861-7.714,0.252c-2.434,1.113-4.32,3.155-5.237,5.67L94.972,238.969
			c-10.126,27.785-1.258,59.831,22.068,79.742c3.01,2.57,11.734,8.159,13.392,8.918L78.549,467.533L33.62,450.44
			c-5.163-1.963-10.939,0.628-12.902,5.791c-1.963,5.162,0.629,10.939,5.791,12.902l110.95,42.211
			c1.17,0.445,2.372,0.656,3.554,0.656c4.031,0,7.83-2.456,9.349-6.447c1.963-5.162-0.629-10.939-5.791-12.902l-47.327-18.005
			l51.876-139.885c7.714,1.905,17.046,2.315,17.472,2.315c30.43,0,56.638-17.961,66.768-45.758l22.025-60.437l22.025,60.437
			c10.13,27.796,36.338,45.757,66.769,45.758c0.429,0,15.466-1.803,17.759-2.592l53.453,139.454l-49.19,18.714
			c-5.162,1.964-7.755,7.741-5.791,12.902c1.519,3.992,5.317,6.447,9.349,6.447c1.182,0,2.384-0.211,3.554-0.656l110.949-42.211
			C489.423,467.17,492.016,461.393,490.052,456.232z M214.568,284.469c-7.218,19.807-26.051,32.606-47.977,32.606
			c-0.311,0-19.258-0.243-36.565-13.574c-17.718-13.647-23.545-37.702-16.262-57.684l26.963-73.987
			c4.301-0.55,9.533-0.999,15.146-0.999c8.611,0,16.336,1.044,22.962,3.104c11.669,3.627,28.748,5.792,45.685,5.792
			c8.379,0,18.818-0.515,29.09-2.386L214.568,284.469z M224.518,159.728c-14.812-0.02-30.042-1.874-39.749-4.891
			c-8.549-2.658-18.272-4.005-28.898-4.005c-2.574,0-5.072,0.082-7.463,0.217c-0.035,0.001,38.306-105.407,38.306-105.407
			l100.899,38.388l-25.704,70.532C261.906,154.562,240.248,159.75,224.518,159.728z M309.78,81.613
			c0.585-1.605,0.733-3.265,0.505-4.847c-0.504-3.48-2.831-6.587-6.345-7.924l-20.436-7.774l40.548-15.426l58.393,160.228
			c-0.088-0.003-14.698-1.372-32.578,3.953c-9.627,2.867-24.628,4.882-39.265,4.882c-20.203,0.001-45.522-9.569-45.782-9.723
			L309.78,81.613z M345.115,317.066c-22.357,0.109-41.597-12.508-48.917-32.598l-19.396-53.221
			c12.325,2.86,25.205,3.457,33.802,3.456c16.778,0,33.698-2.169,45.26-5.802c6.533-2.053,14.155-3.094,22.653-3.094
			c3.708,0,7.527,0.197,11.409,0.587l7.077,19.421c7.282,19.982,0.746,43.163-16.266,57.685
			C378.603,305.326,359.123,316.998,345.115,317.066z"/>
	</g>
</g>
<g>
	<g>
		<path d="M66.399,83.2L29.15,68.62c-3.04-1.19-6.52-0.8-9.22,1.01c-1.7,1.14-2.99,2.75-3.74,4.66c-2,5.13,0.54,10.94,5.67,12.95
			l37.25,14.58c1.17,0.46,2.4,0.69,3.64,0.69c1.99,0,3.92-0.58,5.58-1.69c1.7-1.14,2.99-2.75,3.74-4.66
			C74.079,91.019,71.529,85.21,66.399,83.2z"/>
	</g>
</g>
<g>
	<g>
		<path d="M109.17,103.079c-1.08-2.44-3.03-4.33-5.52-5.3c-3.041-1.19-6.521-0.8-9.221,1.01c-1.7,1.13-2.99,2.75-3.74,4.66
			c-0.97,2.48-0.92,5.2,0.15,7.65c1.07,2.45,3.03,4.33,5.52,5.3c1.17,0.46,2.39,0.69,3.64,0.69c1.99,0,3.92-0.58,5.58-1.7
			c1.69-1.13,2.99-2.74,3.731-4.65C110.29,108.249,110.24,105.529,109.17,103.079z"/>
	</g>
</g>
<g>
	<g>
		<path d="M123.059,67.78c-1.9-2.52-4.81-3.97-7.981-3.97c-2.19,0-4.269,0.7-6.03,2.02c-4.39,3.33-5.26,9.61-1.94,14.01
			c1.911,2.52,4.821,3.97,7.981,3.97c2.19,0,4.28-0.7,6.03-2.02c2.13-1.61,3.5-3.96,3.87-6.6
			C125.359,72.54,124.669,69.91,123.059,67.78z"/>
	</g>
</g>
<g>
	<g>
		<path d="M98.939,35.87l-24.13-31.9C72.899,1.45,69.989,0,66.829,0c-2.19,0-4.269,0.7-6.019,2.02c-4.4,3.33-5.28,9.61-1.95,14.01
			l24.129,31.91c1.9,2.52,4.81,3.97,7.98,3.97c2.19,0,4.27-0.7,6.02-2.03c2.13-1.61,3.51-3.95,3.88-6.6
			C101.229,40.63,100.549,38,98.939,35.87z"/>
	</g>
</g>
<g>
	<g>
		<path d="M99.079,140.279c-0.85-4.78-4.99-8.24-9.83-8.24c-0.59,0-1.19,0.05-1.77,0.16c-5.43,0.97-9.05,6.18-8.08,11.61
			c0.86,4.77,4.99,8.23,9.83,8.23c0.59,0,1.19-0.05,1.78-0.16c2.63-0.47,4.92-1.93,6.44-4.13
			C98.979,145.559,99.559,142.899,99.079,140.279z"/>
	</g>
</g>
<g>
	<g>
		<path d="M59.709,147.339c-0.85-4.77-4.99-8.24-9.83-8.24c-0.59,0-1.19,0.06-1.77,0.16l-39.38,7.07c-2.63,0.47-4.91,1.93-6.44,4.13
			c-1.52,2.19-2.1,4.84-1.63,7.47c0.85,4.78,4.99,8.24,9.83,8.24c0.59,0,1.19-0.05,1.78-0.16l39.37-7.06
			C57.059,157.969,60.689,152.769,59.709,147.339z"/>
	</g>
</g>
<g>
	<g>
		<path d="M491.888,72.09c-1.6-3.64-5.189-5.99-9.17-5.99c-1.38,0-2.729,0.28-4.01,0.84l-36.63,16.05
			c-2.451,1.08-4.331,3.04-5.311,5.53c-0.97,2.48-0.91,5.2,0.16,7.65c1.59,3.64,5.19,5.99,9.17,5.99c1.38,0,2.72-0.29,4-0.85
			l36.641-16.05c2.449-1.07,4.329-3.03,5.3-5.52C493.018,77.25,492.958,74.54,491.888,72.09z"/>
	</g>
</g>
<g>
	<g>
		<path d="M418.607,104.189c-1.59-3.64-5.19-5.99-9.159-5.99c-1.391,0-2.73,0.29-4.011,0.85c-2.449,1.07-4.33,3.03-5.3,5.52
			c-0.979,2.48-0.92,5.2,0.15,7.65c1.59,3.64,5.19,5.99,9.16,5.99c1.39,0,2.739-0.29,4.01-0.85c2.45-1.07,4.33-3.03,5.31-5.52
			C419.738,109.359,419.677,106.639,418.607,104.189z"/>
	</g>
</g>
<g>
	<g>
		<path d="M430.227,136.369c-1.609-2.12-3.96-3.5-6.6-3.87c-0.46-0.06-0.93-0.09-1.39-0.09c-4.95,0-9.21,3.71-9.891,8.63
			c-0.37,2.64,0.32,5.27,1.931,7.4c1.61,2.13,3.96,3.51,6.6,3.87c0.46,0.07,0.93,0.1,1.39,0.1c4.96,0,9.21-3.71,9.891-8.63
			C432.528,141.129,431.838,138.499,430.227,136.369z"/>
	</g>
</g>
<g>
	<g>
		<path d="M509.467,147.349c-1.61-2.12-3.95-3.5-6.6-3.87l-39.62-5.49c-0.46-0.06-0.931-0.09-1.391-0.09
			c-4.949,0-9.21,3.71-9.89,8.62c-0.75,5.47,3.07,10.53,8.53,11.28l39.63,5.49c0.46,0.07,0.92,0.1,1.38,0.1
			c4.96,0,9.21-3.71,9.9-8.63C511.767,152.119,511.087,149.479,509.467,147.349z"/>
	</g>
</g>
<g>
	<g>
		<path d="M443.767,1.95c-1.68-1.17-3.649-1.79-5.7-1.79c-3.279,0-6.35,1.61-8.22,4.29l-22.83,32.84
			c-3.15,4.53-2.03,10.77,2.5,13.92c1.681,1.18,3.65,1.79,5.7,1.79c3.271,0,6.35-1.6,8.22-4.29l22.83-32.84
			C449.417,11.35,448.297,5.1,443.767,1.95z"/>
	</g>
</g>
<g>
	<g>
		<path d="M398.097,67.63c-1.689-1.17-3.66-1.79-5.7-1.79c-3.279,0-6.35,1.61-8.22,4.29c-3.15,4.53-2.031,10.78,2.5,13.92
			c1.68,1.18,3.65,1.79,5.7,1.79c3.28,0,6.35-1.6,8.22-4.29C403.747,77.03,402.627,70.78,398.097,67.63z"/>
	</g>
</g>
<g>
	<g>
		<path d="M152.569,249.429c-1.86-1.86-4.44-2.93-7.07-2.93c-2.63,0-5.21,1.07-7.07,2.93s-2.93,4.44-2.93,7.07
			c0,2.63,1.07,5.21,2.93,7.07c1.86,1.86,4.44,2.93,7.07,2.93c2.63,0,5.21-1.07,7.07-2.93s2.93-4.44,2.93-7.07
			C155.499,253.869,154.429,251.289,152.569,249.429z"/>
	</g>
</g>
<g>
	<g>
		<path d="M188.069,227.429c-1.86-1.86-4.44-2.93-7.07-2.93s-5.21,1.07-7.07,2.93s-2.93,4.44-2.93,7.07c0,2.63,1.07,5.21,2.93,7.07
			s4.44,2.93,7.07,2.93s5.21-1.07,7.07-2.93c1.86-1.86,2.93-4.44,2.93-7.07C190.999,231.869,189.929,229.289,188.069,227.429z"/>
	</g>
</g>
<g>
	<g>
		<path d="M168.069,192.429c-1.86-1.86-4.44-2.93-7.07-2.93s-5.21,1.07-7.07,2.93s-2.93,4.44-2.93,7.07s1.07,5.21,2.93,7.07
			s4.44,2.93,7.07,2.93s5.21-1.07,7.07-2.93s2.93-4.44,2.93-7.07S169.929,194.289,168.069,192.429z"/>
	</g>
</g>
<g>
	<g>
		<path d="M188.069,269.928c-1.86-1.86-4.44-2.93-7.07-2.93s-5.21,1.07-7.07,2.93s-2.93,4.44-2.93,7.07c0,2.63,1.07,5.21,2.93,7.07
			c1.86,1.86,4.44,2.93,7.07,2.93s5.21-1.07,7.07-2.93c1.86-1.86,2.93-4.44,2.93-7.07
			C190.999,274.368,189.929,271.788,188.069,269.928z"/>
	</g>
</g>
<g>
	<g>
		<path d="M319.567,252.429c-1.859-1.86-4.439-2.93-7.069-2.93c-2.63,0-5.21,1.07-7.07,2.93c-1.86,1.86-2.93,4.44-2.93,7.07
			s1.069,5.21,2.93,7.07c1.86,1.86,4.44,2.93,7.07,2.93c2.63,0,5.21-1.07,7.069-2.93c1.86-1.86,2.931-4.44,2.931-7.07
			S321.428,254.289,319.567,252.429z"/>
	</g>
</g>
<g>
	<g>
		<path d="M381.567,250.429c-1.859-1.86-4.439-2.93-7.069-2.93c-2.63,0-5.21,1.07-7.07,2.93c-1.86,1.86-2.93,4.44-2.93,7.07
			c0,2.63,1.069,5.21,2.93,7.07c1.86,1.86,4.44,2.93,7.07,2.93c2.63,0,5.21-1.07,7.069-2.93c1.86-1.86,2.931-4.44,2.931-7.07
			C384.498,254.869,383.428,252.289,381.567,250.429z"/>
	</g>
</g>
<g>
	<g>
		<path d="M363.817,281.178c-1.859-1.86-4.439-2.93-7.069-2.93c-2.63,0-5.21,1.07-7.07,2.93s-2.93,4.44-2.93,7.07
			c0,2.63,1.069,5.21,2.93,7.07c1.86,1.86,4.44,2.93,7.07,2.93c2.63,0,5.21-1.07,7.069-2.93c1.86-1.86,2.931-4.44,2.931-7.07
			C366.748,285.618,365.678,283.038,363.817,281.178z"/>
	</g>
</g>
<g>
</g>
<g>
</g>
<g>
</g>
<g>
</g>
<g>
</g>
<g>
</g>
<g>
</g>
<g>
</g>
<g>
</g>
<g>
</g>
<g>
</g>
<g>
</g>
<g>
</g>
<g>
</g>
<g>
</g>
</svg>
